<?xml version="1.0" encoding="utf-8"?>
<svg xmlns="http://www.w3.org/2000/svg" width="91" height="40" viewBox="0 0 91 40" fill="none">
<g clip-path="url(#clip0_2227_196)">
<path d="M2.61808 19V0.799999H10.2361C11.5707 0.799999 12.7927 1.02533 13.9021 1.476C15.0114 1.90933 15.9647 2.53333 16.7621 3.348C17.5767 4.16267 18.2007 5.12467 18.6341 6.234C19.0674 7.34333 19.2841 8.56533 19.2841 9.9C19.2841 11.2347 19.0674 12.4653 18.6341 13.592C18.2007 14.7013 17.5767 15.6633 16.7621 16.478C15.9647 17.2753 15.0114 17.8993 13.9021 18.35C12.7927 18.7833 11.5707 19 10.2361 19H2.61808ZM7.03808 15.984L6.44008 15.1H10.1061C10.8341 15.1 11.4841 14.9787 12.0561 14.736C12.6281 14.476 13.1134 14.1207 13.5121 13.67C13.9281 13.2193 14.2487 12.6733 14.4741 12.032C14.6994 11.3907 14.8121 10.68 14.8121 9.9C14.8121 9.12 14.6994 8.40933 14.4741 7.768C14.2487 7.12667 13.9281 6.58067 13.5121 6.13C13.1134 5.67933 12.6281 5.33267 12.0561 5.09C11.4841 4.83 10.8341 4.7 10.1061 4.7H6.36208L7.03808 3.868V15.984ZM30.3721 19.156C28.8641 19.156 27.5207 18.8527 26.3421 18.246C25.1634 17.622 24.2361 16.7727 23.5601 15.698C22.9014 14.6233 22.5721 13.3927 22.5721 12.006V0.799999H27.0441V11.772C27.0441 12.4307 27.1914 13.0287 27.4861 13.566C27.7807 14.086 28.1794 14.502 28.6821 14.814C29.1847 15.1087 29.7481 15.256 30.3721 15.256C31.0307 15.256 31.6114 15.1087 32.1141 14.814C32.6341 14.502 33.0501 14.086 33.3621 13.566C33.6741 13.0287 33.8301 12.4307 33.8301 11.772V0.799999H38.1461V12.006C38.1461 13.3927 37.8081 14.6233 37.1321 15.698C36.4734 16.7727 35.5547 17.622 34.3761 18.246C33.1974 18.8527 31.8627 19.156 30.3721 19.156ZM42.5829 19V0.799999H50.6169C51.8649 0.799999 52.9223 0.981999 53.7889 1.346C54.6556 1.69267 55.3056 2.204 55.7389 2.88C56.1896 3.53867 56.4149 4.336 56.4149 5.272C56.4149 6.312 56.1549 7.18733 55.6349 7.898C55.1323 8.60867 54.3956 9.08533 53.4249 9.328L53.3729 8.834C54.1876 9.00733 54.8896 9.31067 55.4789 9.744C56.0856 10.1773 56.5536 10.7147 56.8829 11.356C57.2123 11.98 57.3769 12.6907 57.3769 13.488C57.3769 14.4067 57.2209 15.2127 56.9089 15.906C56.5969 16.582 56.1463 17.154 55.5569 17.622C54.9676 18.09 54.2743 18.4367 53.4769 18.662C52.6969 18.8873 51.8303 19 50.8769 19H42.5829ZM46.7429 15.308H50.7209C51.2063 15.308 51.6136 15.23 51.9429 15.074C52.2896 14.918 52.5583 14.6927 52.7489 14.398C52.9396 14.086 53.0349 13.7133 53.0349 13.28C53.0349 12.8813 52.9309 12.5433 52.7229 12.266C52.5323 11.9887 52.2549 11.7807 51.8909 11.642C51.5269 11.486 51.0936 11.408 50.5909 11.408H46.7429V15.308ZM46.7429 8.106H49.9929C50.4436 8.106 50.8249 8.03667 51.1369 7.898C51.4663 7.742 51.7089 7.534 51.8649 7.274C52.0383 6.99667 52.1249 6.66733 52.1249 6.286C52.1249 5.73133 51.9343 5.298 51.5529 4.986C51.1716 4.65667 50.5996 4.492 49.8369 4.492H46.7429V8.106ZM58.4994 19L65.7014 0.799999H69.4454L76.5954 19H72.1234L68.6914 9.77C68.5527 9.406 68.4141 9.016 68.2754 8.6C68.1367 8.184 67.9981 7.75933 67.8594 7.326C67.7207 6.87533 67.5821 6.442 67.4434 6.026C67.3221 5.59267 67.2181 5.194 67.1314 4.83L67.9114 4.804C67.8074 5.23733 67.6861 5.662 67.5474 6.078C67.4261 6.494 67.2961 6.91 67.1574 7.326C67.0361 7.72467 66.8974 8.132 66.7414 8.548C66.5854 8.94667 66.4381 9.36267 66.2994 9.796L62.8674 19H58.4994ZM61.9314 15.516L63.3094 12.188H71.6814L73.0334 15.516H61.9314ZM78.5021 19V15.282H81.5701V4.518H78.5021V0.799999H89.0841V4.518H85.9901V15.282H89.0841V19H78.5021Z" fill="black"/>
<path d="M5.10798 38V27.868H1.77598V26.1H10.378V27.868H6.94398V38H5.10798ZM14.9199 38V36.3H16.8409V27.8H14.9199V26.1H20.5979V27.8H18.6769V36.3H20.5979V38H14.9199ZM30.779 38.17C29.9517 38.17 29.1924 38.0227 28.501 37.728C27.8097 37.4333 27.209 37.014 26.699 36.47C26.189 35.9147 25.7924 35.263 25.509 34.515C25.237 33.767 25.101 32.9453 25.101 32.05C25.101 31.2 25.2484 30.4123 25.543 29.687C25.849 28.9503 26.2684 28.3043 26.801 27.749C27.3337 27.1937 27.9514 26.763 28.654 26.457C29.3567 26.151 30.116 25.998 30.932 25.998C31.51 25.998 32.071 26.0887 32.615 26.27C33.1704 26.44 33.669 26.6837 34.111 27.001C34.5644 27.307 34.9327 27.6583 35.216 28.055L33.992 29.33C33.6634 29.0013 33.329 28.7293 32.989 28.514C32.6604 28.2873 32.3204 28.1173 31.969 28.004C31.629 27.8907 31.2834 27.834 30.932 27.834C30.3767 27.834 29.8554 27.9417 29.368 28.157C28.892 28.361 28.4727 28.65 28.11 29.024C27.7587 29.398 27.481 29.8457 27.277 30.367C27.073 30.877 26.971 31.438 26.971 32.05C26.971 32.696 27.0674 33.2853 27.26 33.818C27.464 34.3393 27.7474 34.787 28.11 35.161C28.4727 35.535 28.9034 35.824 29.402 36.028C29.912 36.2207 30.473 36.317 31.085 36.317C31.459 36.317 31.8274 36.266 32.19 36.164C32.5527 36.062 32.8927 35.9147 33.21 35.722C33.5274 35.5293 33.8164 35.3027 34.077 35.042L34.995 36.538C34.7344 36.844 34.3774 37.1217 33.924 37.371C33.482 37.6203 32.9834 37.8187 32.428 37.966C31.884 38.102 31.3344 38.17 30.779 38.17ZM41.7391 34.396L41.6371 32.339L47.8761 26.1H50.2901L41.7391 34.396ZM40.2091 38V26.1H42.0451V38H40.2091ZM48.0971 38L43.5411 31.914L44.9011 30.741L50.3921 38H48.0971ZM55.3803 38V26.1H62.8773V27.868H57.2163V36.232H62.8773V38H55.3803ZM56.2133 32.781V31.013H61.9423V32.781H56.2133ZM70.8037 38V27.868H67.4717V26.1H76.0737V27.868H72.6397V38H70.8037ZM84.7296 38.17C84.0836 38.17 83.4829 38.085 82.9276 37.915C82.3836 37.745 81.8849 37.49 81.4316 37.15C80.9896 36.7987 80.5929 36.368 80.2416 35.858L81.4996 34.413C82.0549 35.2063 82.5876 35.756 83.0976 36.062C83.6076 36.368 84.2139 36.521 84.9166 36.521C85.3473 36.521 85.7383 36.453 86.0896 36.317C86.4409 36.181 86.7186 35.994 86.9226 35.756C87.1266 35.518 87.2286 35.246 87.2286 34.94C87.2286 34.736 87.1946 34.5433 87.1266 34.362C87.0586 34.1807 86.9509 34.0163 86.8036 33.869C86.6676 33.7217 86.4863 33.5857 86.2596 33.461C86.0443 33.3363 85.7893 33.2287 85.4946 33.138C85.1999 33.036 84.8599 32.951 84.4746 32.883C83.8626 32.7583 83.3299 32.594 82.8766 32.39C82.4233 32.186 82.0436 31.931 81.7376 31.625C81.4316 31.319 81.2049 30.9733 81.0576 30.588C80.9103 30.1913 80.8366 29.7493 80.8366 29.262C80.8366 28.786 80.9386 28.344 81.1426 27.936C81.3579 27.528 81.6469 27.1767 82.0096 26.882C82.3836 26.576 82.8199 26.3437 83.3186 26.185C83.8173 26.015 84.3556 25.93 84.9336 25.93C85.5456 25.93 86.1066 26.0093 86.6166 26.168C87.1266 26.3267 87.5799 26.5647 87.9766 26.882C88.3733 27.188 88.7019 27.5677 88.9626 28.021L87.6706 29.296C87.4439 28.922 87.1889 28.6103 86.9056 28.361C86.6223 28.1003 86.3106 27.9077 85.9706 27.783C85.6306 27.647 85.2679 27.579 84.8826 27.579C84.4406 27.579 84.0553 27.647 83.7266 27.783C83.3979 27.919 83.1373 28.1117 82.9446 28.361C82.7633 28.599 82.6726 28.8823 82.6726 29.211C82.6726 29.449 82.7179 29.67 82.8086 29.874C82.8993 30.0667 83.0353 30.2423 83.2166 30.401C83.4093 30.5483 83.6643 30.6843 83.9816 30.809C84.2989 30.9223 84.6786 31.0243 85.1206 31.115C85.7439 31.251 86.2993 31.4267 86.7866 31.642C87.2739 31.846 87.6876 32.0897 88.0276 32.373C88.3676 32.6563 88.6226 32.9737 88.7926 33.325C88.9739 33.6763 89.0646 34.056 89.0646 34.464C89.0646 35.2233 88.8889 35.8807 88.5376 36.436C88.1863 36.9913 87.6876 37.422 87.0416 37.728C86.3956 38.0227 85.6249 38.17 84.7296 38.17Z" fill="black"/>
</g>
<defs>
<clipPath id="clip0_2227_196">
<rect width="91" height="40" fill="white"/>
</clipPath>
</defs>
</svg>